<svg width="67" height="66" viewBox="0 0 67 66" fill="none" xmlns="http://www.w3.org/2000/svg">
<path d="M10 10V57H59V10L10 10ZM55.1021 53.262H13.8962V13.738H55.1021V53.262ZM27.4891 21.5595C24.9385 21.5595 21.8415 21.6393 21.8415 21.6393V40.9161H25.9815V34.7214C25.9815 34.7214 26.7059 34.7127 27.4891 34.6815C37.3232 34.6903 37.9692 21.0607 27.4891 21.5595ZM27.3787 31.3029C26.7113 31.3098 26.43 31.3306 25.9797 31.289V24.6325C25.9797 24.6325 26.8572 24.603 27.708 24.6325C32.3016 24.8482 32.025 31.4166 27.3787 31.3029ZM43.192 31.894C41.4015 31.2809 40.8364 30.9226 40.8364 30.2455C40.8364 29.5111 41.4629 29.0701 42.5664 29.0701C43.8177 29.0701 45.7114 29.8584 46.3682 30.2126V26.9642C45.4747 26.5232 44.1167 25.9815 42.4169 25.9815C38.8091 25.9815 36.4828 28.0111 36.4828 30.7178C36.4525 32.3932 37.6148 33.5911 40.6281 34.5912C42.3279 35.1502 42.7746 35.9228 42.7746 36.659C42.7746 37.3951 42.2086 37.8656 40.8364 37.8656C39.4943 37.8656 37.5258 37.1173 36.691 36.619V39.8258C37.7946 40.4126 39.3929 40.9699 40.8364 41.0133C45.0422 41.1418 47.1567 39.0132 47.1567 36.336C47.1264 34.2179 45.9623 32.8427 43.192 31.894Z" fill="#D9D9D9"/>
</svg>
