<svg width="66" height="66" viewBox="0 0 66 66" fill="none" xmlns="http://www.w3.org/2000/svg">
<path d="M24.5 59.0001C29.192 59.0001 33 55.1174 33 50.3334V41.6667H24.5C19.808 41.6667 16 45.5494 16 50.3334C16 55.1174 19.808 59.0001 24.5 59.0001Z" fill="#0ACF83"/>
<path d="M16 32.9999C16 28.2159 19.808 24.3333 24.5 24.3333H33V41.6666H24.5C19.808 41.6666 16 37.7839 16 32.9999Z" fill="#A259FF"/>
<path d="M16 15.6667C16 10.8827 19.808 7 24.5 7H33V24.3333H24.5C19.808 24.3333 16 20.4507 16 15.6667Z" fill="#F24E1E"/>
<path d="M33 7H41.5C46.192 7 50 10.8827 50 15.6667C50 20.4507 46.192 24.3333 41.5 24.3333H33V7Z" fill="#FF7262"/>
<path d="M50 32.9999C50 37.7839 46.192 41.6666 41.5 41.6666C36.808 41.6666 33 37.7839 33 32.9999C33 28.2159 36.808 24.3333 41.5 24.3333C46.192 24.3333 50 28.2159 50 32.9999Z" fill="#1ABCFE"/>
</svg>
