<svg width="66" height="66" viewBox="0 0 66 66" fill="none" xmlns="http://www.w3.org/2000/svg">
<g clip-path="url(#clip0_16_140)">
<g clip-path="url(#clip1_16_140)">
<g clip-path="url(#clip2_16_140)">
<path d="M65.1462 29.6613L35.975 0.655916C34.2963 -1.01486 31.5715 -1.01486 29.8905 0.655916L23.8331 6.67932L31.5172 14.3203C33.303 13.7204 35.3504 14.1227 36.7741 15.5384C38.2043 16.9628 38.606 19.0163 37.988 20.7978L45.3935 28.1618C47.1852 27.548 49.2524 27.9453 50.6834 29.3704C52.6832 31.3583 52.6832 34.5803 50.6834 36.5696C48.6828 38.559 45.4427 38.559 43.4414 36.5696C41.9371 35.0724 41.5654 32.8753 42.3271 31.0325L35.4208 24.1649L35.4201 42.2373C35.9076 42.4779 36.3679 42.7979 36.7741 43.2003C38.7739 45.1882 38.7739 48.4102 36.7741 50.401C34.7735 52.3896 31.5319 52.3896 29.5342 50.401C27.5344 48.4102 27.5344 45.1882 29.5342 43.2003C30.0283 42.7097 30.6001 42.3386 31.21 42.0893V23.8485C30.6001 23.6007 30.0291 23.2318 29.5342 22.7376C28.019 21.233 27.6546 19.0221 28.431 17.172L20.8568 9.6389L0.854941 29.5272C-0.825996 31.1994 -0.825996 33.9089 0.854941 35.5797L30.0261 64.5858C31.7056 66.2566 34.4297 66.2566 36.1114 64.5858L65.1462 35.7146C66.8264 34.0431 66.8264 31.3321 65.1462 29.6613Z" fill="#DE4C36"/>
</g>
</g>
</g>
<defs>
<clipPath id="clip0_16_140">
<rect width="66" height="66" fill="white" transform="matrix(1 0 0 -1 0 66)"/>
</clipPath>
<clipPath id="clip1_16_140">
<rect width="106" height="65" fill="white" transform="translate(-20 1)"/>
</clipPath>
<clipPath id="clip2_16_140">
<rect width="66.8121" height="66.4373" fill="white" transform="translate(-0.406006 -0.597168)"/>
</clipPath>
</defs>
</svg>
