<svg width="67" height="66" viewBox="0 0 67 66" fill="none" xmlns="http://www.w3.org/2000/svg">
<g clip-path="url(#clip0_16_150)">
<path d="M34.0003 2C15.7771 2 1 16.6705 1 34.7683C1 49.2462 10.4556 61.5291 23.5676 65.862C25.2168 66.1653 25.8223 65.1511 25.8223 64.2857C25.8223 63.5043 25.7917 60.923 25.7775 58.1849C16.5968 60.1671 14.6596 54.3186 14.6596 54.3186C13.1584 50.5311 10.9955 49.524 10.9955 49.524C8.00138 47.4902 11.2212 47.532 11.2212 47.532C14.535 47.7631 16.2799 50.9088 16.2799 50.9088C19.2232 55.9183 23.9999 54.47 25.883 53.6328C26.1792 51.5149 27.0344 50.0693 27.9782 49.251C20.6484 48.4224 12.9431 45.6127 12.9431 33.0568C12.9431 29.4793 14.2322 26.5561 16.3433 24.2614C16.0006 23.436 14.8711 20.1032 16.6629 15.5896C16.6629 15.5896 19.4341 14.7089 25.7404 18.9485C28.3727 18.2224 31.1958 17.8583 34.0003 17.8458C36.8048 17.8583 39.63 18.2224 42.2673 18.9485C48.5659 14.7089 51.3332 15.5896 51.3332 15.5896C53.1295 20.1032 51.9994 23.436 51.6567 24.2614C53.7727 26.5561 55.0531 29.4793 55.0531 33.0568C55.0531 45.6426 47.3331 48.4138 39.9847 49.225C41.1683 50.2419 42.223 52.236 42.223 55.2932C42.223 59.6777 42.1848 63.2064 42.1848 64.2857C42.1848 65.1577 42.7788 66.1794 44.4515 65.8577C57.5564 61.5199 67 49.2413 67 34.7683C67 16.6705 52.2251 2 34.0003 2ZM13.3597 48.6791C13.287 48.8419 13.0291 48.8907 12.7941 48.7789C12.5547 48.672 12.4203 48.4501 12.4979 48.2868C12.5689 48.1191 12.8274 48.0724 13.0662 48.1848C13.3061 48.2917 13.4427 48.5158 13.3597 48.6791ZM14.9829 50.1173C14.8255 50.2622 14.5179 50.1949 14.3091 49.9659C14.0933 49.7375 14.0528 49.432 14.2124 49.2849C14.3747 49.14 14.6731 49.2079 14.8895 49.4363C15.1053 49.6675 15.1474 49.9708 14.9829 50.1173ZM16.0965 51.9575C15.8943 52.0969 15.5637 51.9661 15.3593 51.6748C15.1571 51.3834 15.1571 51.0339 15.3637 50.8939C15.5686 50.7539 15.8943 50.8798 16.1014 51.169C16.3031 51.4653 16.3031 51.8148 16.0965 51.9575ZM17.9799 54.0886C17.799 54.2867 17.4137 54.2335 17.1318 53.9633C16.8432 53.699 16.7629 53.3241 16.9443 53.126C17.1274 52.9274 17.5148 52.9833 17.799 53.2513C18.0854 53.5151 18.1728 53.8927 17.9799 54.0886ZM20.4139 54.8081C20.3341 55.0647 19.9631 55.1814 19.5893 55.0723C19.2161 54.96 18.9718 54.6594 19.0472 54.4C19.1248 54.1417 19.4975 54.0202 19.874 54.1368C20.2467 54.2486 20.4915 54.5471 20.4139 54.8081ZM23.184 55.1133C23.1933 55.3835 22.8763 55.6076 22.4839 55.6125C22.0894 55.6212 21.7703 55.4025 21.7659 55.1366C21.7659 54.8636 22.0757 54.6417 22.4703 54.6352C22.8627 54.6276 23.184 54.8447 23.184 55.1133ZM25.9052 55.0097C25.9522 55.2734 25.6796 55.5442 25.2899 55.6163C24.9068 55.6858 24.5522 55.523 24.5035 55.2615C24.456 54.9912 24.7336 54.7205 25.1161 54.6505C25.5063 54.5832 25.8555 54.7416 25.9052 55.0097Z" fill="white"/>
</g>
<defs>
<clipPath id="clip0_16_150">
<rect x="0.670044" width="66" height="66" rx="33" fill="white"/>
</clipPath>
</defs>
</svg>
