<svg width="66" height="66" viewBox="0 0 66 66" fill="none" xmlns="http://www.w3.org/2000/svg">
<g clip-path="url(#clip0_16_89)">
<path d="M19.5948 25.9317H29.1703V26.7094H20.4725V32.5623H28.6516V33.34H20.4725V39.7659H29.27V40.5436H19.5948V25.9317ZM30.0281 25.9317H31.0455L35.554 32.3577L40.1622 25.9317L46.4302 17.7693L36.1325 33.033L41.439 40.5436H40.3817L35.554 33.7083L30.7064 40.5436H29.669L35.0154 33.033L30.0281 25.9317ZM41.818 26.7094V25.9317H52.7301V26.7094H47.703V40.5436H46.8252V26.7094H41.818ZM7.61536 25.9317H8.71255L23.8423 49.0652L17.5899 40.5436L8.53301 27.0368L8.49311 40.5436H7.61536V25.9317ZM52.6417 39.5312C52.4624 39.5312 52.3279 39.3892 52.3279 39.2058C52.3279 39.0223 52.4624 38.8803 52.6417 38.8803C52.8232 38.8803 52.9555 39.0223 52.9555 39.2058C52.9555 39.3892 52.8232 39.5312 52.6417 39.5312ZM53.5042 38.675H53.9739C53.9803 38.9349 54.166 39.1097 54.4393 39.1097C54.7446 39.1097 54.9175 38.9218 54.9175 38.5701V36.3422H55.3957V38.5723C55.3957 39.2058 55.0371 39.5705 54.4435 39.5705C53.8863 39.5705 53.5042 39.2167 53.5042 38.675ZM56.0212 38.6466H56.4952C56.5358 38.9458 56.8218 39.1359 57.2339 39.1359C57.6182 39.1359 57.9 38.9327 57.9 38.6531C57.9 38.4129 57.7206 38.2687 57.3129 38.1704L56.9158 38.0721C56.3586 37.9389 56.1045 37.6637 56.1045 37.2006C56.1045 36.6392 56.5528 36.2657 57.2253 36.2657C57.8509 36.2657 58.3077 36.6392 58.3355 37.17H57.8701C57.8252 36.8795 57.5776 36.6982 57.2189 36.6982C56.841 36.6982 56.5891 36.8839 56.5891 37.1678C56.5891 37.3928 56.7514 37.5217 57.1527 37.6178L57.4922 37.703C58.1241 37.8537 58.3846 38.1158 58.3846 38.5898C58.3846 39.1927 57.9277 39.5705 57.1976 39.5705C56.5144 39.5705 56.0554 39.2101 56.0212 38.6466Z" fill="white"/>
</g>
<defs>
<clipPath id="clip0_16_89">
<rect width="50.7692" height="31.3077" fill="white" transform="translate(7.61536 17.7693)"/>
</clipPath>
</defs>
</svg>
