<svg width="55" height="48" viewBox="0 0 55 48" fill="none" xmlns="http://www.w3.org/2000/svg">
<path fill-rule="evenodd" clip-rule="evenodd" d="M13.8704 10.4743C15.17 11.5302 15.6575 11.4496 18.098 11.2868L41.1051 9.90531C41.5931 9.90531 41.1874 9.41852 41.0246 9.33763L37.2037 6.57534C36.4714 6.00691 35.4961 5.35596 33.6266 5.51881L11.3487 7.14368C10.5362 7.22423 10.374 7.63047 10.6975 7.95607L13.8704 10.4743ZM15.2517 15.8361V40.0436C15.2517 41.3447 15.9018 41.8314 17.3651 41.7509L42.6499 40.2879C44.114 40.2073 44.277 39.3125 44.277 38.2556V14.2105C44.277 13.1554 43.8712 12.5864 42.975 12.6676L16.552 14.2105C15.5769 14.2925 15.2516 14.7803 15.2516 15.8361H15.2517ZM40.2129 17.1347C40.3749 17.8666 40.2129 18.5976 39.4796 18.6799L38.2614 18.9227V36.7943C37.2037 37.3627 36.2282 37.6878 35.4154 37.6878C34.1141 37.6878 33.7882 37.2813 32.8134 36.0634L24.8445 23.5532V35.6572L27.3662 36.2262C27.3662 36.2262 27.3662 37.6878 25.3317 37.6878L19.7232 38.0132C19.5601 37.6878 19.7232 36.8762 20.292 36.7135L21.7557 36.3078V20.3041L19.7235 20.1413C19.5605 19.4094 19.9665 18.3541 21.1055 18.2724L27.1222 17.8667L35.4154 30.5398V19.3288L33.301 19.0863C33.1387 18.1915 33.7882 17.5418 34.6013 17.4614L40.2129 17.1347ZM9.47821 4.95047L32.6508 3.24396C35.4964 2.99991 36.2285 3.16341 38.017 4.4626L45.414 9.66158C46.6345 10.5556 47.0414 10.799 47.0414 11.7736V40.2879C47.0414 42.0748 46.3904 43.1318 44.1144 43.2934L17.2041 44.9185C15.4955 44.9999 14.6824 44.7564 13.7876 43.6185L8.34038 36.5509C7.3644 35.25 6.9585 34.2766 6.9585 33.138V7.79266C6.9585 6.33128 7.6097 5.11223 9.47821 4.95047Z" fill="white"/>
</svg>
