<svg width="67" height="66" viewBox="0 0 67 66" fill="none" xmlns="http://www.w3.org/2000/svg">
<path d="M41.1124 1C34.5486 4.60675 27.9901 8.21613 21.429 11.8255L23.6002 23.0238L40.3922 9.85938L41.1124 1ZM41.5662 1.15488L40.8565 9.85412L52.7204 17.0781L41.5662 1.15488ZM40.6349 10.2531L23.7347 23.512L43.2308 63.8504L46.336 57.658L53 17.8C52.9683 17.7764 40.6322 10.2531 40.6322 10.2531H40.6349ZM21.0464 12.298L13 29.6072L25.1752 57.4638L23.2229 23.512L23.1913 23.344L21.0464 12.298ZM23.7506 24.604L25.6764 58.162L42.7903 64L23.7506 24.604Z" fill="#562389"/>
</svg>
