<svg width="22" height="21" viewBox="0 0 22 21" fill="none" xmlns="http://www.w3.org/2000/svg">
<path d="M20.8881 15.0515V17.8769C20.8892 18.1391 20.8322 18.3988 20.7206 18.6391C20.6091 18.8794 20.4454 19.0951 20.2402 19.2725C20.035 19.4498 19.7927 19.5848 19.5289 19.6688C19.265 19.7528 18.9855 19.784 18.7081 19.7604C15.631 19.4455 12.6751 18.4552 10.0781 16.8691C7.66194 15.4232 5.61345 13.494 4.07812 11.2184C2.38809 8.76152 1.33636 5.96423 1.00812 3.05318C0.983127 2.79275 1.01599 2.53026 1.10462 2.28245C1.19324 2.03463 1.33569 1.80691 1.52288 1.61378C1.71008 1.42065 1.93792 1.26634 2.19191 1.16069C2.44589 1.05503 2.72046 1.00034 2.99812 1.00009H5.99812C6.48342 0.995593 6.95391 1.15744 7.32188 1.45547C7.68985 1.75351 7.93019 2.16738 7.99812 2.61996C8.12474 3.52413 8.35957 4.41192 8.69812 5.26637C8.83266 5.60346 8.86178 5.9698 8.78202 6.322C8.70227 6.67419 8.51698 6.99747 8.24812 7.25353L6.97812 8.4496C8.40167 10.8074 10.4746 12.7596 12.9781 14.1003L14.2481 12.9042C14.52 12.651 14.8633 12.4765 15.2372 12.4014C15.6112 12.3263 16.0002 12.3537 16.3581 12.4804C17.2654 12.7993 18.2081 13.0204 19.1681 13.1397C19.6539 13.2042 20.0975 13.4347 20.4146 13.7872C20.7318 14.1397 20.9003 14.5896 20.8881 15.0515Z" stroke="black" stroke-width="2" stroke-linecap="round" stroke-linejoin="round"/>
</svg>
