<svg width="67" height="66" viewBox="0 0 67 66" fill="none" xmlns="http://www.w3.org/2000/svg">
<g clip-path="url(#clip0_16_52)">
<path d="M33.4499 8.0144C20.2808 8.01441 21.1032 13.6374 21.1032 13.6374L21.1179 19.4629H33.6848V21.2119H16.1263C16.1263 21.2119 7.69946 20.2709 7.69946 33.3542C7.69946 46.4375 15.0546 45.9735 15.0546 45.9735H19.4442V39.9024C19.4442 39.9024 19.2076 32.6604 26.682 32.6604H39.1461C39.1461 32.6604 46.1489 32.7718 46.1489 25.9966V14.7939C46.1489 14.7938 47.2121 8.0144 33.4499 8.0144ZM26.5205 11.9317C27.7708 11.9317 28.7813 12.9267 28.7813 14.1578C28.7813 15.3889 27.7708 16.3839 26.5205 16.3839C25.2701 16.3839 24.2596 15.3889 24.2596 14.1578C24.2596 12.9267 25.2701 11.9317 26.5205 11.9317Z" fill="url(#paint0_linear_16_52)"/>
<path d="M33.8239 58.8252C46.993 58.8252 46.1706 53.2021 46.1706 53.2021L46.1559 47.3767H33.589V45.6277H51.1475C51.1475 45.6277 59.5743 46.5686 59.5743 33.4854C59.5743 20.4021 52.2192 20.866 52.2192 20.866H47.8296V26.9372C47.8296 26.9372 48.0662 34.1792 40.5918 34.1792H28.1277C28.1277 34.1792 21.1249 34.0677 21.1249 40.843V52.0457C21.1249 52.0457 20.0617 58.8252 33.8239 58.8252ZM40.7533 54.9078C39.503 54.9078 38.4925 53.9128 38.4925 52.6818C38.4925 51.4507 39.503 50.4557 40.7533 50.4557C42.0037 50.4557 43.0142 51.4507 43.0142 52.6818C43.0142 53.9128 42.0037 54.9078 40.7533 54.9078Z" fill="url(#paint1_linear_16_52)"/>
</g>
<defs>
<linearGradient id="paint0_linear_16_52" x1="12.6847" y1="12.5847" x2="37.9974" y2="38.0364" gradientUnits="userSpaceOnUse">
<stop stop-color="#387EB8"/>
<stop offset="1" stop-color="#366994"/>
</linearGradient>
<linearGradient id="paint1_linear_16_52" x1="28.4639" y1="28.6761" x2="55.6665" y2="54.7933" gradientUnits="userSpaceOnUse">
<stop stop-color="#FFE052"/>
<stop offset="1" stop-color="#FFC331"/>
</linearGradient>
<clipPath id="clip0_16_52">
<rect width="52" height="51" fill="white" transform="translate(7.67004 8)"/>
</clipPath>
</defs>
</svg>
