<svg width="67" height="66" viewBox="0 0 67 66" fill="none" xmlns="http://www.w3.org/2000/svg">
<g clip-path="url(#clip0_16_62)">
<g clip-path="url(#clip1_16_62)">
<path d="M54.6053 22.7797C53.9207 22.5472 53.2112 22.3272 52.4807 22.1191C52.6008 21.6356 52.711 21.1584 52.809 20.6892C54.4172 12.9862 53.3657 6.7805 49.7749 4.73734C46.3319 2.77821 40.701 4.82091 35.014 9.70429C34.4672 10.1739 33.9188 10.671 33.3706 11.1921C33.0054 10.8474 32.6407 10.5142 32.277 10.1956C26.317 4.97392 20.3429 2.77346 16.7557 4.82254C13.3159 6.78734 12.2972 12.6212 13.7449 19.9215C13.8847 20.6266 14.0481 21.3467 14.2329 22.0789C13.3874 22.3157 12.5712 22.5681 11.7902 22.8367C4.80265 25.2405 0.340088 29.0078 0.340088 32.9155C0.340088 36.9514 5.13065 40.9995 12.4087 43.4541C12.9831 43.6478 13.579 43.8309 14.1932 44.0048C13.9939 44.7966 13.8205 45.5726 13.6749 46.3294C12.2945 53.503 13.3725 59.1991 16.8031 61.1515C20.3467 63.1677 26.2937 61.0953 32.0846 56.1006C32.5423 55.7058 33.0016 55.2871 33.4618 54.8482C34.0582 55.4149 34.6537 55.9513 35.2461 56.4544C40.8552 61.2171 46.3952 63.1403 49.8226 61.1824C53.3626 59.1604 54.5131 53.0414 53.0195 45.5967C52.9054 45.0281 52.7727 44.4473 52.6236 43.8561C53.0412 43.7343 53.4512 43.6085 53.851 43.4777C61.4172 41.0042 66.3401 37.0053 66.3401 32.9155C66.3401 28.9937 61.7336 25.201 54.6053 22.7797ZM52.9643 40.837C52.6034 40.9549 52.2331 41.0688 51.8557 41.1793C51.0205 38.5701 49.8931 35.7956 48.5136 32.9291C49.83 30.1308 50.9138 27.3918 51.7257 24.7996C52.4008 24.9923 53.0561 25.1957 53.6876 25.4102C59.7951 27.4848 63.5206 30.5521 63.5206 32.9155C63.5206 35.433 59.4972 38.7011 52.9643 40.837ZM50.2536 46.137C50.914 49.4289 51.0084 52.4053 50.5709 54.732C50.1778 56.8226 49.3873 58.2166 48.4098 58.7748C46.3299 59.9627 41.8819 58.4186 37.0849 54.3455C36.5349 53.8786 35.981 53.38 35.4253 52.8523C37.285 50.8455 39.1437 48.5124 40.9577 45.9213C44.1483 45.6419 47.1627 45.1852 49.8963 44.5617C50.0309 45.0976 50.1505 45.6231 50.2536 46.137ZM22.841 58.5695C20.8088 59.2777 19.1903 59.298 18.2119 58.7413C16.1301 57.5565 15.2646 52.9831 16.4452 46.8483C16.5804 46.1457 16.7413 45.424 16.9268 44.6863C19.6305 45.2762 22.6228 45.7007 25.8211 45.9565C27.6473 48.492 29.5596 50.8225 31.4867 52.8631C31.0657 53.2642 30.6463 53.646 30.2292 54.0058C27.6685 56.2144 25.1025 57.7814 22.841 58.5695ZM13.3206 40.8216C10.1024 39.7363 7.44464 38.3257 5.62289 36.7864C3.98593 35.4031 3.15947 34.0299 3.15947 32.9155C3.15947 30.5442 6.74246 27.5196 12.7183 25.4638C13.4434 25.2143 14.2024 24.9792 14.9901 24.7584C15.816 27.4092 16.8994 30.1807 18.2068 32.9832C16.8824 35.8274 15.7837 38.643 14.9497 41.3249C14.3881 41.1656 13.8441 40.998 13.3206 40.8216ZM16.5119 19.3872C15.2716 13.1326 16.0953 8.41425 18.1682 7.23026C20.3763 5.96896 25.2588 7.76731 30.4049 12.2759C30.7338 12.5641 31.064 12.8657 31.3952 13.1778C29.4776 15.2095 27.5828 17.5225 25.7728 20.043C22.6688 20.3269 19.6975 20.7829 16.9656 21.3936C16.7939 20.7118 16.6417 20.0421 16.5119 19.3872ZM44.9813 26.3236C44.3283 25.2106 43.6578 24.1239 42.9743 23.0668C45.0801 23.3295 47.0977 23.6782 48.9924 24.1049C48.4236 25.9037 47.7146 27.7844 46.88 29.7125C46.2813 28.591 45.6481 27.4602 44.9813 26.3236ZM33.3716 15.166C34.6721 16.5562 35.9744 18.1083 37.2554 19.7924C35.9646 19.7322 34.6577 19.7009 33.3401 19.7009C32.0349 19.7009 30.7377 19.7315 29.4548 19.7906C30.7371 18.1222 32.0508 16.5722 33.3716 15.166ZM21.6875 26.3429C21.0351 27.4591 20.4136 28.5837 19.8244 29.7104C19.0033 27.7891 18.3009 25.8997 17.7271 24.0754C19.6102 23.6596 21.6183 23.3196 23.7107 23.062C23.0176 24.1287 22.3416 25.2235 21.6875 26.3427V26.3429ZM23.7709 42.9676C21.6091 42.7296 19.5708 42.4071 17.6882 42.0028C18.2712 40.1459 18.9891 38.2162 19.8275 36.2535C20.4183 37.3794 21.0423 38.5045 21.6986 39.6231H21.6987C22.3673 40.7627 23.06 41.879 23.7709 42.9676ZM33.4496 50.8612C32.1133 49.4386 30.7803 47.8649 29.4785 46.1721C30.7423 46.221 32.0307 46.2461 33.3401 46.2461C34.6853 46.2461 36.0152 46.2162 37.3242 46.1587C36.0389 47.8819 34.7413 49.458 33.4496 50.8612ZM46.9069 36.1535C47.7891 38.1374 48.5327 40.057 49.1232 41.8822C47.2096 42.313 45.1435 42.6599 42.9666 42.9177C43.6517 41.8464 44.328 40.741 44.9926 39.604C45.6649 38.4536 46.3033 37.3015 46.9069 36.1535ZM42.5503 38.2141C41.5186 39.9792 40.4594 41.6642 39.3842 43.2547C37.4257 43.3929 35.4023 43.4641 33.3401 43.4641C31.2862 43.4641 29.2884 43.4011 27.3645 43.2779C26.2459 41.6665 25.1637 39.9766 24.1385 38.2293H24.1388C23.1164 36.4869 22.1753 34.7297 21.3227 32.9823C22.1751 31.2309 23.1136 29.4717 24.1302 27.7324L24.13 27.7327C25.1492 25.9888 26.2219 24.307 27.3302 22.7057C29.2931 22.5593 31.3058 22.4829 33.34 22.4829H33.3401C35.3834 22.4829 37.3988 22.5599 39.361 22.7076C40.4524 24.2972 41.5178 25.9735 42.541 27.7177C43.5759 29.4815 44.5266 31.2289 45.3863 32.9428C44.5292 34.6861 43.5806 36.4511 42.5503 38.2141ZM48.3666 7.1475C50.5767 8.40509 51.4362 13.477 50.0476 20.1277C49.959 20.5521 49.8593 20.9844 49.751 21.4224C47.0128 20.799 44.0394 20.3351 40.9263 20.0469C39.1128 17.4987 37.2335 15.1821 35.3471 13.1765C35.8543 12.6951 36.3607 12.2361 36.865 11.8029C41.7376 7.61882 46.2917 5.96688 48.3666 7.1475ZM33.3401 27.1003C36.595 27.1003 39.2337 29.7038 39.2337 32.9155C39.2337 36.1272 36.595 38.7308 33.3401 38.7308C30.0852 38.7308 27.4465 36.1272 27.4465 32.9155C27.4465 29.7038 30.0852 27.1003 33.3401 27.1003Z" fill="#00D8FF"/>
</g>
</g>
<defs>
<clipPath id="clip0_16_62">
<rect x="0.340088" width="66" height="66" rx="33" fill="white"/>
</clipPath>
<clipPath id="clip1_16_62">
<rect width="66" height="58" fill="white" transform="translate(0.340088 4)"/>
</clipPath>
</defs>
</svg>
