<svg width="24" height="19" viewBox="0 0 24 19" fill="none" xmlns="http://www.w3.org/2000/svg">
<path d="M23 1.00947C22.0424 1.64562 20.9821 2.13218 19.86 2.4504C19.2577 1.79822 18.4573 1.33598 17.567 1.12618C16.6767 0.916385 15.7395 0.969158 14.8821 1.27736C14.0247 1.58557 13.2884 2.13434 12.773 2.84945C12.2575 3.56456 11.9877 4.41151 12 5.27575V6.21753C10.2426 6.26045 8.50127 5.89338 6.93101 5.14903C5.36074 4.40468 4.01032 3.30614 3 1.95125C3 1.95125 -1 10.4273 8 14.1944C5.94053 15.511 3.48716 16.1712 1 16.078C10 20.7869 21 16.078 21 5.2475C20.9991 4.98517 20.9723 4.72348 20.92 4.46582C21.9406 3.5179 22.6608 2.3211 23 1.00947V1.00947Z" stroke="black" stroke-width="2" stroke-linecap="round" stroke-linejoin="round"/>
</svg>
